# Blender3D v248 OBJ File: 
# www.blender3d.org
v 1.000000 -0.999844 -0.999949
v 1.000000 -0.999844 1.000051
v -1.000000 -0.999844 1.000051
v -1.000000 -0.999844 -0.999949
v 1.000000 1.000156 -0.999948
v 0.999999 1.000156 1.000052
v -1.000000 1.000156 1.000051
v -1.000000 1.000156 -0.999949
vt 0.001019 1.000000
vt 0.000000 0.501529
vt 0.332314 0.500000
vt 0.333333 0.998471
vt 1.000000 0.501529
vt 0.998981 1.000000
vt 0.666667 0.998471
vt 0.667686 0.500000
vt 0.665647 0.500000
vt 0.334353 1.000000
vt 0.333333 0.501529
vt 0.998981 0.000000
vt 1.000000 0.498471
vt 0.666667 0.001529
vt 0.333333 0.498471
vt 0.334353 0.000000
vt 0.001020 0.500000
vt 0.000000 0.001529
vt 0.332314 0.000000
vn -0.000000 -1.000000 0.000000
vn 0.000000 1.000000 0.000000
vn 1.000000 0.000000 0.000000
vn -0.000000 -0.000000 1.000000
vn -1.000000 -0.000000 -0.000000
vn 0.000000 0.000000 -1.000000
usemtl Material_gold.tga
s off
f 1/1/1 2/2/1 3/3/1 4/4/1
f 5/5/2 8/6/2 7/7/2 6/8/2
f 1/9/3 5/7/3 6/10/3 2/11/3
f 2/12/4 6/13/4 7/8/4 3/14/4
f 3/15/5 7/16/5 8/14/5 4/9/5
f 5/15/6 1/17/6 4/18/6 8/19/6
